<svg width="85" height="38" viewBox="0 0 85 38" fill="none" xmlns="http://www.w3.org/2000/svg">
<g clip-path="url(#clip0_1_15)">
<path d="M22.0038 22.168H33.0234C34.2734 22.168 35.2929 21.1484 35.2929 19.8984V15.2617C35.2929 15.2578 35.2929 15.25 35.2929 15.2461C35.2929 15.2344 35.2929 15.2266 35.2929 15.2148C35.2929 15.207 35.2929 15.1992 35.289 15.1914C35.289 15.1836 35.2851 15.1719 35.2851 15.1641C35.2851 15.1562 35.2812 15.1484 35.2812 15.1406C35.2773 15.1328 35.2773 15.125 35.2734 15.1133C35.2695 15.1055 35.2695 15.0977 35.2656 15.0898C35.2617 15.082 35.2617 15.0742 35.2578 15.0664C35.2538 15.0586 35.2499 15.0508 35.246 15.0391C35.2421 15.0312 35.2382 15.0234 35.2343 15.0195C35.2304 15.0117 35.2265 15.0039 35.2226 14.9961C35.2187 14.9883 35.2148 14.9844 35.2109 14.9766C35.207 14.9687 35.1992 14.9609 35.1953 14.9531C35.1913 14.9453 35.1874 14.9414 35.1796 14.9336C35.1757 14.9258 35.1679 14.9219 35.164 14.9141C35.1601 14.9062 35.1523 14.9023 35.1484 14.8945C35.1445 14.8867 35.1367 14.8828 35.1328 14.8789C35.1249 14.8711 35.121 14.8672 35.1132 14.8594C35.1054 14.8555 35.1015 14.8477 35.0937 14.8437C35.0859 14.8398 35.0781 14.832 35.0703 14.8281C35.0624 14.8242 35.0585 14.8203 35.0507 14.8164C35.0429 14.8125 35.0351 14.8086 35.0273 14.8008C35.0195 14.7969 35.0117 14.793 35.0038 14.7891C34.996 14.7852 34.9882 14.7812 34.9804 14.7773C34.9726 14.7734 34.9648 14.7695 34.957 14.7656C34.9492 14.7617 34.9413 14.7617 34.9335 14.7578C34.9257 14.7539 34.914 14.75 34.9062 14.75C34.8984 14.75 34.8906 14.7461 34.8867 14.7461C34.8749 14.7422 34.8671 14.7422 34.8554 14.7422C34.8515 14.7422 34.8476 14.7383 34.8398 14.7383L20.8476 12.7852V10.8359C20.8476 10.8164 20.8476 10.793 20.8437 10.7773C20.8437 10.7734 20.8437 10.7695 20.8398 10.7617C20.8398 10.75 20.8359 10.7383 20.8359 10.7266C20.832 10.7148 20.832 10.707 20.8281 10.6953C20.8281 10.6875 20.8242 10.6836 20.8242 10.6758C20.8203 10.6641 20.8163 10.6523 20.8124 10.6406C20.8124 10.6367 20.8085 10.6289 20.8085 10.625C20.8046 10.6133 20.8007 10.6055 20.7929 10.5937C20.789 10.5898 20.789 10.582 20.7851 10.5781C20.7812 10.5703 20.7773 10.5625 20.7695 10.5547C20.7656 10.5469 20.7617 10.543 20.7578 10.5352C20.7538 10.5273 20.7499 10.5234 20.746 10.5156C20.7421 10.5078 20.7343 10.5 20.7304 10.4922C20.7265 10.4883 20.7226 10.4844 20.7187 10.4805C20.7109 10.4727 20.7031 10.4648 20.6953 10.457C20.6913 10.4531 20.6874 10.4492 20.6835 10.4453C20.6757 10.4375 20.6679 10.4297 20.6562 10.4219C20.6523 10.418 20.6445 10.4141 20.6406 10.4102C20.6328 10.4023 20.6249 10.3984 20.6171 10.3906C20.6054 10.3828 20.5937 10.375 20.5859 10.3711C20.582 10.3672 20.5781 10.3672 20.5742 10.3633C20.5585 10.3555 20.539 10.3477 20.5195 10.3398L17.4765 9.04297C17.1913 8.92188 16.8671 9.05469 16.7499 9.33984C16.6328 9.625 16.7617 9.94922 17.0468 10.0664L19.7343 11.1992V13.7148V14.1172V17.1758V19.9101V23.3633C19.7343 24.5156 20.5976 25.4687 21.7109 25.6133C21.5078 25.9492 21.3906 26.3437 21.3906 26.7656C21.3906 28.0039 22.3984 29.0039 23.6288 29.0039C24.8593 29.0039 25.8671 27.9961 25.8671 26.7656C25.8671 26.3555 25.7578 25.9648 25.5585 25.6367H30.5468C30.3476 25.9687 30.2382 26.3555 30.2382 26.7656C30.2382 28.0039 31.246 29.0039 32.4765 29.0039C33.707 29.0039 34.7148 27.9961 34.7148 26.7656C34.7148 25.5351 33.707 24.5273 32.4765 24.5273H22.0038C21.3632 24.5273 20.8437 24.0039 20.8437 23.3672V21.8633C21.1835 22.0547 21.582 22.168 22.0038 22.168ZM24.7656 26.7539C24.7656 27.3789 24.2578 27.8828 23.6367 27.8828C23.0156 27.8828 22.5078 27.375 22.5078 26.7539C22.5078 26.1328 23.0156 25.625 23.6367 25.625C24.2578 25.625 24.7656 26.1328 24.7656 26.7539ZM33.621 26.7539C33.621 27.3789 33.1132 27.8828 32.4921 27.8828C31.871 27.8828 31.3632 27.375 31.3632 26.7539C31.3632 26.1328 31.871 25.625 32.4921 25.625C33.1132 25.625 33.621 26.1328 33.621 26.7539ZM33.0234 21.0586H22.0038C21.3632 21.0586 20.8437 20.5351 20.8437 19.8984V17.1641V14.1055V13.8984L34.1835 15.7344V19.8906C34.1835 20.5391 33.6601 21.0586 33.0234 21.0586Z" fill="black"/>
</g>
<path d="M46.6211 13.472C47.0878 13.472 47.5358 13.5513 47.9651 13.71C48.4038 13.8593 48.7958 14.0647 49.1411 14.326C49.4864 14.5873 49.7711 14.8907 49.9951 15.236C50.2191 15.5813 50.3591 15.95 50.4151 16.342C50.4338 16.426 50.4338 16.482 50.4151 16.51C50.4058 16.538 50.3731 16.552 50.3171 16.552L49.2671 16.636C49.2204 16.6453 49.1878 16.636 49.1691 16.608C49.1504 16.58 49.1364 16.5427 49.1271 16.496C48.9964 15.8987 48.7118 15.418 48.2731 15.054C47.8438 14.6807 47.3071 14.494 46.6631 14.494C45.6924 14.494 44.9458 14.8533 44.4231 15.572C43.9004 16.2907 43.6391 17.3733 43.6391 18.82C43.6391 20.22 43.8958 21.2793 44.4091 21.998C44.9224 22.7167 45.6971 23.076 46.7331 23.076C47.3958 23.076 47.9464 22.9173 48.3851 22.6C48.8331 22.2827 49.1924 21.774 49.4631 21.074C49.4911 21.018 49.5471 20.9993 49.6311 21.018L50.4571 21.214C50.4851 21.2233 50.5084 21.242 50.5271 21.27C50.5458 21.298 50.5458 21.3447 50.5271 21.41C50.4524 21.6807 50.3358 21.9467 50.1771 22.208C50.0278 22.4693 49.8411 22.7167 49.6171 22.95C49.3931 23.174 49.1318 23.3793 48.8331 23.566C48.5344 23.7433 48.2031 23.8833 47.8391 23.986C47.4844 24.0887 47.0971 24.14 46.6771 24.14C45.7531 24.14 44.9551 23.9253 44.2831 23.496C43.6204 23.0667 43.1118 22.4507 42.7571 21.648C42.4118 20.8453 42.2391 19.8933 42.2391 18.792C42.2391 17.6907 42.4118 16.7433 42.7571 15.95C43.1118 15.1473 43.6158 14.536 44.2691 14.116C44.9318 13.6867 45.7158 13.472 46.6211 13.472ZM56.5755 23.104C56.2302 23.44 55.8522 23.6967 55.4415 23.874C55.0402 24.0513 54.5875 24.14 54.0835 24.14C53.3555 24.14 52.7815 23.9533 52.3615 23.58C51.9509 23.2067 51.7455 22.7167 51.7455 22.11C51.7455 21.6153 51.8855 21.1907 52.1655 20.836C52.4455 20.472 52.8609 20.1873 53.4115 19.982C53.9622 19.7673 54.6389 19.6367 55.4415 19.59L56.5335 19.506C56.5895 19.4967 56.6409 19.478 56.6875 19.45C56.7342 19.422 56.7575 19.3707 56.7575 19.296V18.918C56.7575 18.414 56.5989 18.0173 56.2815 17.728C55.9735 17.4293 55.5535 17.28 55.0215 17.28C54.6109 17.28 54.2375 17.3733 53.9015 17.56C53.5749 17.7467 53.2809 18.0267 53.0195 18.4C52.9822 18.4467 52.9495 18.4793 52.9215 18.498C52.9029 18.5073 52.8655 18.5027 52.8095 18.484L52.0535 18.232C52.0255 18.2133 52.0022 18.19 51.9835 18.162C51.9742 18.134 51.9882 18.0827 52.0255 18.008C52.3055 17.5227 52.6975 17.14 53.2015 16.86C53.7149 16.58 54.3402 16.44 55.0775 16.44C55.7029 16.44 56.2209 16.538 56.6315 16.734C57.0515 16.9207 57.3642 17.196 57.5695 17.56C57.7842 17.9147 57.8915 18.3393 57.8915 18.834V23.79C57.8915 23.874 57.8775 23.93 57.8495 23.958C57.8215 23.986 57.7749 24 57.7095 24H56.9955C56.9302 24 56.8835 23.9813 56.8555 23.944C56.8275 23.8973 56.8089 23.8413 56.7995 23.776L56.7855 23.132C56.7575 23.0013 56.6875 22.992 56.5755 23.104ZM56.7575 20.444C56.7575 20.2853 56.6922 20.2107 56.5615 20.22L55.6375 20.304C55.2082 20.3227 54.8255 20.3787 54.4895 20.472C54.1535 20.556 53.8689 20.668 53.6355 20.808C53.4022 20.948 53.2249 21.116 53.1035 21.312C52.9822 21.4987 52.9215 21.718 52.9215 21.97C52.9215 22.3807 53.0615 22.7027 53.3415 22.936C53.6309 23.16 54.0182 23.272 54.5035 23.272C54.8022 23.272 55.0869 23.2207 55.3575 23.118C55.6375 23.006 55.8802 22.866 56.0855 22.698C56.3002 22.5207 56.4635 22.3387 56.5755 22.152C56.6969 21.9653 56.7575 21.7833 56.7575 21.606V20.444ZM60.1715 24C60.1061 24 60.0548 23.986 60.0175 23.958C59.9895 23.9207 59.9755 23.874 59.9755 23.818V16.762C59.9755 16.6407 60.0268 16.58 60.1295 16.58H60.9415C61.0441 16.58 61.0955 16.6313 61.0955 16.734V17.644C61.0955 17.7 61.1095 17.7327 61.1375 17.742C61.1655 17.7513 61.2028 17.7327 61.2495 17.686C61.4921 17.3967 61.7301 17.1633 61.9635 16.986C62.2061 16.7993 62.4488 16.664 62.6915 16.58C62.9341 16.4867 63.1768 16.44 63.4195 16.44C63.7461 16.44 63.9095 16.5007 63.9095 16.622V17.462C63.9095 17.5553 63.8675 17.5927 63.7835 17.574C63.6995 17.5647 63.6015 17.5553 63.4895 17.546C63.3868 17.5367 63.2748 17.532 63.1535 17.532C62.9481 17.532 62.7288 17.5787 62.4955 17.672C62.2621 17.756 62.0428 17.8773 61.8375 18.036C61.6415 18.1947 61.4781 18.372 61.3475 18.568C61.2168 18.764 61.1515 18.96 61.1515 19.156V23.79C61.1515 23.93 61.0815 24 60.9415 24H60.1715ZM67.2948 17.462C67.2202 17.462 67.1828 17.4993 67.1828 17.574V22.012C67.1828 22.4507 67.2575 22.7447 67.4068 22.894C67.5562 23.0433 67.7802 23.118 68.0788 23.118H69.0448C69.0915 23.118 69.1288 23.132 69.1568 23.16C69.1848 23.1787 69.1988 23.216 69.1988 23.272L69.1848 23.748C69.1848 23.8413 69.1288 23.902 69.0168 23.93C68.9235 23.9487 68.7882 23.9627 68.6108 23.972C68.4428 23.9813 68.2748 23.9907 68.1068 24C67.9482 24 67.8128 24 67.7008 24C67.1128 24 66.6835 23.8647 66.4128 23.594C66.1422 23.314 66.0068 22.8753 66.0068 22.278V17.602C66.0068 17.5087 65.9602 17.462 65.8668 17.462H64.7468C64.6442 17.462 64.5928 17.4107 64.5928 17.308V16.72C64.5928 16.6267 64.6395 16.58 64.7328 16.58H65.9228C65.9882 16.58 66.0208 16.5427 66.0208 16.468L66.1748 14.242C66.1842 14.1207 66.2355 14.06 66.3288 14.06H67.0288C67.1408 14.06 67.1968 14.1253 67.1968 14.256V16.468C67.1968 16.5427 67.2342 16.58 67.3088 16.58H69.0728C69.1755 16.58 69.2268 16.622 69.2268 16.706V17.308C69.2268 17.4107 69.1755 17.462 69.0728 17.462H67.2948Z" fill="black"/>
<defs>
<clipPath id="clip0_1_15">
<rect width="20" height="20" fill="white" transform="translate(16 9)"/>
</clipPath>
</defs>
</svg>
